# xmcd
#
# Track frame offsets: 
#        150
#        12285
#        36111
#        55437
#        81397
#        109522
#        140722
#        157622
#        186250
#        208240
#        229870
#
# Disc length: 3891 seconds
#
# Revision: 4
# Processed by: cddbd v1.5.2PL0 Copyright (c) Steve Scherf et al.
# Submitted via: ExactAudioCopy v0.99pb5
#
DISCID=930f310b
DTITLE=Maxwell - k-Maxwell's Urban Hang Suite
DYEAR=1996
DGENRE=R&B
TTITLE0=The Urban Theme
TTITLE1=Welcome
TTITLE2=Sumthin' Sumthin'
TTITLE3=Ascension (Don't Ever Wonder)
TTITLE4=Dancewitme
TTITLE5=Til The Cops Come Knockin'
TTITLE6=Whenever Wherever Whatever
TTITLE7=Lonely's The Only Company (I and II)
TTITLE8=Reunion
TTITLE9=Suitelady (The Proposal Jam)
TTITLE10=The Suite Theme
EXTD=
EXTT0=
EXTT1=
EXTT2=
EXTT3=
EXTT4=
EXTT5=
EXTT6=
EXTT7=
EXTT8=
EXTT9=
EXTT10=
PLAYORDER=
